<?xml version="1.0" encoding="UTF-8"?>
<!DOCTYPE svg PUBLIC "-//W3C//DTD SVG 1.0//EN" "http://www.w3.org/TR/2001/REC-SVG-20010904/DTD/svg10.dtd">
<!-- Creator: CorelDRAW X8 -->
<svg xmlns="http://www.w3.org/2000/svg" xml:space="preserve" width="19.4859mm" height="20.1534mm" version="1.0" style="shape-rendering:geometricPrecision; text-rendering:geometricPrecision; image-rendering:optimizeQuality; fill-rule:evenodd; clip-rule:evenodd"
viewBox="0 0 226 233"
 xmlns:xlink="http://www.w3.org/1999/xlink">
 <defs>
  <style type="text/css">
   <![CDATA[
    .str0 {stroke:white;stroke-width:19.6035}
    .fil1 {fill:#5E951B}
    .fil0 {fill:white}
   ]]>
  </style>
 </defs>
 <g id="Camada_x0020_1">
  <metadata id="CorelCorpID_0Corel-Layer"/>
  <path class="fil0 str0" d="M86 177c-8,0 -14,-7 -14,-15l0 -37 -6 0 0 12 -6 0 0 -6 -22 0 0 -6 -18 0 0 -14 18 0 0 -7 22 0 0 -6 6 0 0 13 6 0 0 -38c0,-8 6,-15 14,-15l8 0 0 53 6 0 0 -51c0,-8 7,-14 15,-14l9 0 0 65 7 0 0 -57c0,-9 8,-17 17,-17 9,0 17,8 17,17l0 41 48 0c-1,-5 -2,-10 -3,-14l0 -67 -37 0 0 16c-17,-13 -38,-20 -60,-20 -57,0 -103,48 -103,107 0,59 46,107 103,107 20,0 39,-7 56,-18 21,-14 37,-37 44,-64 0,-2 0,-3 1,-5l-49 0 0 44c0,10 -8,17 -17,17 -9,0 -17,-7 -17,-17l0 -56 -7 0 0 65 -9 0c-8,0 -15,-7 -15,-15l0 -50 -6 0 0 52 -8 0 0 0z"/>
  <path class="fil1" d="M86 177c-8,0 -14,-7 -14,-15l0 -37 -6 0 0 12 -6 0 0 -6 -22 0 0 -6 -18 0 0 -14 18 0 0 -7 22 0 0 -6 6 0 0 13 6 0 0 -38c0,-8 6,-15 14,-15l8 0 0 53 6 0 0 -51c0,-8 7,-14 15,-14l9 0 0 65 7 0 0 -57c0,-9 8,-17 17,-17 9,0 17,8 17,17l0 41 48 0c-1,-5 -2,-10 -3,-14l0 -67 -37 0 0 16c-17,-13 -38,-20 -60,-20 -57,0 -103,48 -103,107 0,59 46,107 103,107 20,0 39,-7 56,-18 21,-14 37,-37 44,-64 0,-2 0,-3 1,-5l-49 0 0 44c0,10 -8,17 -17,17 -9,0 -17,-7 -17,-17l0 -56 -7 0 0 65 -9 0c-8,0 -15,-7 -15,-15l0 -50 -6 0 0 52 -8 0 0 0z"/>
 </g>
</svg>
